PathFileType	4	(X/Y/Z)	./resultDataOpenSim/trcMotMarkerGrf/sub10/qtm-14-05.trc
DataRate	CameraRate	NumFrames	NumMarkers	Units	OrigDataRate	OrigDataStartFrame	OrigNumFrames
250.000000	250.000000	12	24	m	250.000000	122	486
Frame#	Time	L.Toe.Tip			R.Toe.Tip			L.Ankle.Lat			R.Ankle.Lat			L.Ankle.Med			R.Ankle.Med			L.Heel			R.Heel			L.Knee.Lat			R.Knee.Lat			L.Knee.Med			R.Knee.Med			L.Thigh.Upper			R.Thigh.Upper			L.ASIS			R.ASIS			V.Sacral			L.Acromium			R.Acromium			C7			L.Elbow			R.Elbow			L.Wrist.Lat			R.Wrist.Lat
		X1	Y1	Z1	X2	Y2	Z2	X3	Y3	Z3	X4	Y4	Z4	X5	Y5	Z5	X6	Y6	Z6	X7	Y7	Z7	X8	Y8	Z8	X9	Y9	Z9	X10	Y10	Z10	X11	Y11	Z11	X12	Y12	Z12	X13	Y13	Z13	X14	Y14	Z14	X15	Y15	Z15	X16	Y16	Z16	X17	Y17	Z17	X18	Y18	Z18	X19	Y19	Z19	X20	Y20	Z20	X21	Y21	Z21	X22	Y22	Z22	X23	Y23	Z23	X24	Y24	Z24

122	0.484	-0.27765009	0.1009861	-0.12936382	-0.78783511	0.039222519	-0.01014982	-0.41124968	0.078406662	-0.15084994	-0.92688663	0.05394241	0.02408118	-0.40532817	0.11119643	-0.06994479	-0.90824845	0.082767422	-0.059279898	-0.45491582	0.029436807	-0.098974009	-0.9794635	0.031361412	-0.026969571	-0.5275569	0.44637898	-0.18973018	-0.81210811	0.44031805	0.076577059	-0.50647696	0.43608548	-0.069279356	-0.79946068	0.4455218	-0.052615357	-0.66293159	0.81567451	-0.24400281	-0.74621002	0.85371927	0.13308901	-0.61989645	0.92562388	-0.1721518	-0.65178923	0.93979306	0.069230562	-0.83241088	0.94754055	-0.08343063	-0.68957156	1.4106112	-0.20039408	-0.69091501	1.392742	0.11902699	-0.77229447	1.4306987	-0.042778617	-0.84665078	1.1013289	-0.25595053	-0.67234903	1.0361486	0.18668177	-0.72661092	0.88669907	-0.28177609	-0.44978429	0.9211051	0.16179356
123	0.488	-0.26318471	0.105403	-0.12659285	-0.787737	0.039174149	-0.010138683	-0.39599483	0.079631404	-0.1498627	-0.92676425	0.053943215	0.024000609	-0.39147327	0.11252036	-0.06898083	-0.90793511	0.082672309	-0.059472278	-0.43906513	0.029696663	-0.098303782	-0.97944288	0.031529236	-0.02709315	-0.52144063	0.44457467	-0.18906524	-0.80857214	0.4393076	0.076195193	-0.50106682	0.43419348	-0.068459939	-0.79562712	0.4447362	-0.05286871	-0.65667981	0.81414626	-0.24358119	-0.74165112	0.85256279	0.13299827	-0.61339273	0.9241338	-0.17151417	-0.64689378	0.93849307	0.069707447	-0.82609623	0.94614932	-0.083448225	-0.68386643	1.4090448	-0.20003522	-0.68533495	1.39133	0.11930232	-0.76657285	1.4292826	-0.042794389	-0.84130928	1.0998866	-0.25550571	-0.6647072	1.0346823	0.18685338	-0.72126914	0.88526825	-0.28130051	-0.44095431	0.92241125	0.16059516
124	0.492	-0.24943269	0.10976064	-0.12405446	-0.78761971	0.039131563	-0.010118197	-0.381274	0.080927437	-0.14912587	-0.92662482	0.053996197	0.023918683	-0.37807864	0.11389544	-0.06826273	-0.90770196	0.082545346	-0.059700709	-0.42375788	0.030109504	-0.097917871	-0.97941439	0.031713773	-0.027229942	-0.51525199	0.44288504	-0.18823718	-0.80505871	0.43824121	0.075771931	-0.49568737	0.43229818	-0.067511377	-0.79171422	0.44388998	-0.053141747	-0.65036666	0.81255876	-0.24315554	-0.73710056	0.85135826	0.13294497	-0.60686867	0.92264559	-0.17085939	-0.64196673	0.93714629	0.070183423	-0.8194448	0.94483473	-0.083042678	-0.67823777	1.4074419	-0.19973119	-0.6797196	1.3898712	0.119556	-0.7607608	1.4278517	-0.04255849	-0.83590398	1.0983944	-0.2549564	-0.65697066	1.0331779	0.18699115	-0.71589511	0.88378953	-0.28083933	-0.43221344	0.9236761	0.15939296
125	0.496	-0.23632891	0.11398217	-0.12180309	-0.78749493	0.03909784	-0.010106321	-0.36710182	0.082277271	-0.14862609	-0.92652837	0.054165605	0.02380196	-0.36518746	0.11530682	-0.067764493	-0.90749981	0.08240255	-0.059943573	-0.40905361	0.030629242	-0.097933323	-0.97937719	0.031931969	-0.027396344	-0.50896857	0.44132824	-0.18726429	-0.80146598	0.43714401	0.075346122	-0.49033345	0.43044281	-0.066440429	-0.78772551	0.44298609	-0.053441423	-0.64398318	0.81091373	-0.2427278	-0.73250182	0.85009997	0.13285989	-0.60033175	0.92115677	-0.17018301	-0.63699389	0.93576898	0.070648509	-0.81243073	0.94374175	-0.082070843	-0.67262007	1.4057986	-0.19946734	-0.67407681	1.3883658	0.11979033	-0.75514069	1.426402	-0.042238674	-0.83045228	1.0968523	-0.25439606	-0.64922908	1.0316462	0.18707972	-0.71049142	0.88226691	-0.28038516	-0.42357094	0.9248972	0.15818348
126	0.5	-0.22374882	0.11796636	-0.11980767	-0.78737665	0.039069846	-0.010126953	-0.3534863	0.083684306	-0.14827997	-0.92655177	0.054479613	0.023605689	-0.35285493	0.11669331	-0.067411201	-0.90724174	0.082276056	-0.060175109	-0.39499159	0.031204005	-0.09846461	-0.97933154	0.032197927	-0.027579527	-0.50252304	0.43992963	-0.18621282	-0.79773303	0.43602735	0.074922794	-0.48499294	0.42867821	-0.065277994	-0.78362635	0.4420358	-0.053771762	-0.63751631	0.80920973	-0.24229166	-0.72783268	0.84878002	0.13272993	-0.59379789	0.91967348	-0.16949218	-0.63197393	0.93437882	0.07109429	-0.80526012	0.94265617	-0.080792694	-0.66695505	1.4041213	-0.19922641	-0.66844152	1.3868184	0.11999907	-0.74973633	1.4249216	-0.041925846	-0.82498367	1.0952671	-0.25392509	-0.64163204	1.0300959	0.18710669	-0.70509515	0.88069821	-0.27994167	-0.41503347	0.92607588	0.15696072
127	0.504	-0.2116124	0.12158227	-0.1179755	-0.78726749	0.039037916	-0.010182504	-0.34046628	0.085130989	-0.14796463	-0.92668956	0.054868551	0.023318109	-0.34114642	0.11794186	-0.067107522	-0.90688215	0.08218504	-0.060390168	-0.38159958	0.031775468	-0.099475103	-0.9792775	0.032512199	-0.027757409	-0.49586058	0.43870644	-0.18519213	-0.79387534	0.43488969	0.074480378	-0.47965377	0.42702665	-0.064078685	-0.77935281	0.44104755	-0.054110636	-0.63095044	0.80744422	-0.2418375	-0.7230888	0.84739047	0.13257378	-0.58728642	0.91820265	-0.16879483	-0.62691371	0.93297729	0.071525798	-0.79827108	0.9413312	-0.079765816	-0.66124079	1.4024212	-0.1990004	-0.66283216	1.385233	0.12018126	-0.74438889	1.4233984	-0.041662256	-0.81952093	1.0936495	-0.25353986	-0.63423663	1.0285345	0.18706952	-0.69971209	0.87908046	-0.27951435	-0.40660382	0.92721304	0.15572449
128	0.508	-0.19994825	0.12469534	-0.11620983	-0.78715773	0.038993894	-0.010251843	-0.32812831	0.086529617	-0.14757135	-0.92683559	0.055214074	0.022980804	-0.33011123	0.11893094	-0.066753974	-0.90643776	0.082125682	-0.060607136	-0.36894959	0.032256793	-0.10060171	-0.97921354	0.032863086	-0.027926074	-0.48897954	0.43765964	-0.18431713	-0.78993679	0.43372577	0.074004799	-0.47426985	0.42546964	-0.062907093	-0.77490177	0.43999753	-0.054441334	-0.62427508	0.80561257	-0.24135602	-0.71827419	0.84592998	0.13241776	-0.58081126	0.91674084	-0.16808701	-0.62181396	0.93155119	0.071954447	-0.79183652	0.93970357	-0.079618511	-0.65549721	1.4007035	-0.1987902	-0.65722966	1.3836161	0.1203473	-0.73897589	1.4218293	-0.04145699	-0.81408758	1.092005	-0.25316393	-0.626992	1.0269748	0.18698215	-0.69426506	0.87741314	-0.27909536	-0.39828203	0.92831198	0.1544864
129	0.512	-0.18887583	0.12718363	-0.11448812	-0.7870378	0.038938795	-0.010318269	-0.31658224	0.087722317	-0.14704395	-0.92687885	0.055474447	0.022658429	-0.3197561	0.11959062	-0.066281087	-0.90594592	0.082087215	-0.060848924	-0.35717005	0.032552352	-0.10129392	-0.9791356	0.033241793	-0.028103429	-0.48189653	0.43677998	-0.18363438	-0.78594611	0.43253183	0.073500627	-0.46876477	0.42397602	-0.06182078	-0.77038953	0.43882744	-0.054798256	-0.61747465	0.80370964	-0.24083643	-0.71339071	0.84440361	0.13227732	-0.57438238	0.91527443	-0.16735806	-0.61666078	0.93009153	0.072379082	-0.7862881	0.93775193	-0.080746317	-0.64974934	1.3989628	-0.19861043	-0.65160994	1.3819745	0.12050451	-0.73347917	1.4202227	-0.041297555	-0.8087096	1.0903313	-0.25277899	-0.61982684	1.0254246	0.18685965	-0.68867029	0.87570284	-0.27866666	-0.39006959	0.92937781	0.15325986
130	0.516	-0.17853352	0.12892995	-0.11290147	-0.78690614	0.038878734	-0.010381204	-0.30591385	0.088535115	-0.14638958	-0.92677761	0.055695176	0.022393741	-0.31003742	0.11993379	-0.065681155	-0.90543686	0.082067731	-0.061121694	-0.34637057	0.032621487	-0.10123976	-0.97903998	0.033650568	-0.028304789	-0.47458901	0.4360596	-0.18307893	-0.78191373	0.43130738	0.072979952	-0.46307756	0.42253943	-0.060858764	-0.76593217	0.43750891	-0.055222782	-0.61052936	0.80173703	-0.24027289	-0.70844139	0.84281957	0.13215752	-0.56800722	0.91378931	-0.16659785	-0.61142945	0.92861193	0.072779982	-0.78151977	0.9354912	-0.082746672	-0.6440236	1.397194	-0.19847165	-0.64598599	1.3803125	0.12064381	-0.72792931	1.4185932	-0.041173875	-0.80332765	1.0886264	-0.25241521	-0.61269728	1.0238802	0.18670374	-0.6829685	0.87396153	-0.27823394	-0.38195499	0.93041469	0.15204723
131	0.52	-0.16900641	0.12983117	-0.11159857	-0.78676686	0.038818377	-0.010445507	-0.29615009	0.088847542	-0.14565877	-0.92655677	0.055927196	0.022187033	-0.30089932	0.12002056	-0.064998184	-0.90492722	0.082072607	-0.061414278	-0.33658624	0.032481991	-0.10052224	-0.97892822	0.034097705	-0.028526664	-0.46700493	0.43549762	-0.18251593	-0.77784674	0.43005251	0.072453974	-0.45716457	0.42119814	-0.060027296	-0.76149871	0.43609374	-0.055688905	-0.60343281	0.79970823	-0.23966544	-0.70343458	0.84118433	0.13206201	-0.56168597	0.91227976	-0.16579725	-0.60607662	0.92714411	0.073116387	-0.77690445	0.93311038	-0.084556406	-0.63832328	1.3954067	-0.19836591	-0.64039708	1.3786358	0.12074555	-0.72236314	1.416954	-0.041085405	-0.79774668	1.0868918	-0.25206163	-0.60559437	1.0223364	0.18651142	-0.67729137	0.87219584	-0.27782795	-0.37390825	0.93142471	0.15084543
132	0.524	-0.16029097	0.12983311	-0.11067373	-0.78662506	0.038760899	-0.010513718	-0.28727074	0.088629542	-0.14490637	-0.92625703	0.056192972	0.022015282	-0.29232883	0.11988135	-0.064291098	-0.90441401	0.082105534	-0.061715322	-0.32779699	0.032160785	-0.099419956	-0.9788067	0.034591728	-0.028769048	-0.4591209	0.43508893	-0.18183071	-0.77375435	0.42876683	0.07193073	-0.45097548	0.42001234	-0.05930108	-0.75697438	0.43466168	-0.056129342	-0.59620002	0.79764404	-0.23901607	-0.69837364	0.83949554	0.13199502	-0.5554109	0.91074674	-0.16495431	-0.60053415	0.92571219	0.073328554	-0.7718526	0.93089241	-0.085511899	-0.63263416	1.3936211	-0.19829119	-0.63484763	1.376954	0.12080263	-0.71681805	1.4153135	-0.041031054	-0.79183275	1.0851238	-0.25165712	-0.5985287	1.0207955	0.18628485	-0.67170349	0.87040193	-0.27745872	-0.36592489	0.93240504	0.14965394
133	0.528	-0.15230816	0.12895227	-0.11009197	-0.78648499	0.038708166	-0.010584311	-0.27923872	0.087932158	-0.14416585	-0.92589408	0.056502786	0.021860637	-0.28434898	0.11948619	-0.063598053	-0.90388336	0.082168819	-0.062018151	-0.31996414	0.03167174	-0.098217446	-0.97868096	0.035139249	-0.029055932	-0.45096069	0.43480433	-0.18099818	-0.76964515	0.42745091	0.071413997	-0.44446001	0.4190155	-0.058644427	-0.75231903	0.43324693	-0.056518149	-0.58885458	0.79556898	-0.23833506	-0.69325649	0.83774746	0.1319604	-0.54917177	0.90918837	-0.16408287	-0.59475203	0.92430904	0.073379579	-0.76619691	0.9289626	-0.085844727	-0.62694335	1.3918521	-0.19825904	-0.62927401	1.3752831	0.1208345	-0.71132603	1.4136749	-0.041005082	-0.78575674	1.08332	-0.25118702	-0.59150335	1.0192693	0.18603178	-0.6661656	0.86857095	-0.27710321	-0.35804306	0.9333522	0.14847258
